<svg width="360" height="254" viewBox="0 0 360 254" fill="none" xmlns="http://www.w3.org/2000/svg">
<path d="M0 247.077V0H359.333C359.836 21.6913 360.541 80.3255 359.333 141.332C358.125 202.339 313.344 213 286.863 179.461C275.623 165.227 230.698 150.89 140.915 207.423C51.132 263.956 9.56209 257.414 0 247.077Z" fill="#F9A144"/>
<path d="M123.167 56H59.8333C55.6341 56 51.6068 57.6681 48.6375 60.6375C45.6681 63.6068 44 67.6341 44 71.8333V135.167C44 139.366 45.6681 143.393 48.6375 146.363C51.6068 149.332 55.6341 151 59.8333 151H123.167C127.366 151 131.393 149.332 134.363 146.363C137.332 143.393 139 139.366 139 135.167V71.8333C139 67.6341 137.332 63.6068 134.363 60.6375C131.393 57.6681 127.366 56 123.167 56ZM131.083 135.167C131.083 137.266 130.249 139.28 128.765 140.765C127.28 142.249 125.266 143.083 123.167 143.083H59.8333C57.7337 143.083 55.7201 142.249 54.2354 140.765C52.7507 139.28 51.9167 137.266 51.9167 135.167V71.8333C51.9167 69.7337 52.7507 67.7201 54.2354 66.2354C55.7201 64.7507 57.7337 63.9167 59.8333 63.9167H123.167C125.266 63.9167 127.28 64.7507 128.765 66.2354C130.249 67.7201 131.083 69.7337 131.083 71.8333V135.167ZM106.617 89.3331C103.561 89.3436 100.59 90.3439 98.1506 92.1843C95.7107 94.0247 93.9329 96.606 93.0833 99.5417H66.1667C65.1169 99.5417 64.11 99.9587 63.3677 100.701C62.6254 101.443 62.2083 102.45 62.2083 103.5V113.709C62.2083 114.758 62.6254 115.765 63.3677 116.508C64.11 117.25 65.1169 117.667 66.1667 117.667C67.2165 117.667 68.2233 117.25 68.9656 116.508C69.708 115.765 70.125 114.758 70.125 113.709V107.458H74.0833V113.709C74.0833 114.758 74.5004 115.765 75.2427 116.508C75.985 117.25 76.9919 117.667 78.0417 117.667C79.0915 117.667 80.0983 117.25 80.8406 116.508C81.583 115.765 82 114.758 82 113.709V107.458H93.0833C93.8236 109.978 95.2509 112.241 97.2053 113.995C99.1597 115.749 101.564 116.924 104.148 117.389C106.733 117.853 109.396 117.588 111.839 116.625C114.281 115.661 116.407 114.036 117.978 111.932C119.55 109.827 120.504 107.327 120.734 104.711C120.964 102.096 120.461 99.4673 119.281 97.1212C118.102 94.775 116.292 92.8037 114.055 91.4282C111.819 90.0526 109.243 89.3272 106.617 89.3331ZM106.617 109.75C105.381 109.749 104.173 109.381 103.147 108.693C102.12 108.005 101.32 107.029 100.848 105.886C100.376 104.744 100.254 103.488 100.496 102.276C100.738 101.064 101.334 99.951 102.208 99.0776C103.082 98.2043 104.196 97.6098 105.408 97.3693C106.621 97.1288 107.877 97.253 109.018 97.7263C110.16 98.1996 111.136 99.0007 111.822 100.028C112.509 101.056 112.875 102.264 112.875 103.5C112.873 105.158 112.213 106.748 111.039 107.92C109.866 109.092 108.275 109.75 106.617 109.75Z" fill="white"/>
</svg>
